<!doctype html><html lang=en><head><meta charset=utf-8><meta name=description content="All of these videos are encoded with target bitrate of 4M,
individual video weighing at around 9 MB.
AVC/H.264 Huh   var video = document."><meta property="og:title" content="Video with different video codes for testing browser support"><meta property="og:description" content="All of these videos are encoded with target bitrate of 4M,
individual video weighing at around 9 MB.
AVC/H.264 Huh   var video = document."><meta property="og:type" content="website"><meta property="og:image" content="https://notes.joubamety.com/icon.png"><meta property="og:url" content="https://notes.joubamety.com/test/video_codecs/"><meta property="og:width" content="200"><meta property="og:height" content="200"><meta name=twitter:card content="summary"><meta name=twitter:title content="Video with different video codes for testing browser support"><meta name=twitter:description content="All of these videos are encoded with target bitrate of 4M,
individual video weighing at around 9 MB.
AVC/H.264 Huh   var video = document."><meta name=twitter:image content="https://notes.joubamety.com/icon.png"><meta name=twitter:site content="JoubaMety"><title>Video with different video codes for testing browser support</title><meta name=viewport content="width=device-width,initial-scale=1"><link rel="shortcut icon" type=image/png href=https://notes.joubamety.com//icon.png><link href=https://notes.joubamety.com/styles.e5ee0ce2958a5e480acb1d3e40b14ead.min.css rel=stylesheet><link href=https://notes.joubamety.com/styles/_light_syntax.86a48a52faebeaaf42158b72922b1c90.min.css rel=stylesheet id=theme-link><script src=https://notes.joubamety.com/js/darkmode.d33f00e530eae32dfa876033dd6bd3fa.min.js></script>
<script src=https://notes.joubamety.com/js/util.00639692264b21bc3ee219733d38a8be.min.js></script>
<link rel=preload href=https://cdn.jsdelivr.net/npm/katex@0.15.1/dist/katex.min.css as=style onload='this.onload=null,this.rel="stylesheet"' integrity=sha384-R4558gYOUz8mP9YWpZJjofhk+zx0AS11p36HnD2ZKj/6JR5z27gSSULCNHIRReVs crossorigin=anonymous><script defer src=https://cdn.jsdelivr.net/npm/katex@0.15.1/dist/katex.min.js integrity=sha384-z1fJDqw8ZApjGO3/unPWUPsIymfsJmyrDVWC8Tv/a1HeOtGmkwNd/7xUS0Xcnvsx crossorigin=anonymous></script>
<script defer src=https://cdn.jsdelivr.net/npm/katex@0.15.1/dist/contrib/auto-render.min.js integrity=sha384-+XBljXPPiv+OzfbB3cVmLHf4hdUFHlWNZN5spNQ7rmHTXpd7WvJum6fIACpNNfIR crossorigin=anonymous></script>
<script defer src=https://cdn.jsdelivr.net/npm/katex@0.16.2/dist/contrib/copy-tex.min.js integrity=sha384-ww/583aHhxWkz5DEVn6OKtNiIaLi2iBRNZXfJRiY1Ai7tnJ9UXpEsyvOITVpTl4A crossorigin=anonymous></script>
<script src=https://cdn.jsdelivr.net/npm/@floating-ui/core@1.2.1></script>
<script src=https://cdn.jsdelivr.net/npm/@floating-ui/dom@1.2.1></script>
<script defer src=https://notes.joubamety.com/js/popover.aa9bc99c7c38d3ae9538f218f1416adb.min.js></script>
<script defer src=https://notes.joubamety.com/js/code-title.ce4a43f09239a9efb48fee342e8ef2df.min.js></script>
<script defer src=https://notes.joubamety.com/js/clipboard.2913da76d3cb21c5deaa4bae7da38c9f.min.js></script>
<script defer src=https://notes.joubamety.com/js/callouts.7723cac461d613d118ee8bb8216b9838.min.js></script>
<script>const SEARCH_ENABLED=null,LATEX_ENABLED=!0,PRODUCTION=!0,BASE_URL="https://notes.joubamety.com/",fetchData=Promise.all([fetch("https://notes.joubamety.com/indices/linkIndex.1592d01a11297adc45406d73830a7227.min.json").then(e=>e.json()).then(e=>({index:e.index,links:e.links})),fetch("https://notes.joubamety.com/indices/contentIndex.8154ae7a0d5fa89e48e6d04481653061.min.json").then(e=>e.json())]).then(([{index:e,links:t},n])=>({index:e,links:t,content:n})),render=()=>{const e=new URL(BASE_URL),t=e.pathname,n=window.location.pathname,s=t==n;addCopyButtons(),addTitleToCodeBlocks(),addCollapsibleCallouts(),initPopover("https://notes.joubamety.com",!0);const o=document.getElementById("footer");if(o){const e=document.getElementById("graph-container");if(!e)return requestAnimationFrame(render);e.textContent="";const t=s&&!1;drawGraph("https://notes.joubamety.com",t,[{"/moc":"#4388cc"}],t?{centerForce:1,depth:-1,enableDrag:!0,enableLegend:!1,enableZoom:!0,fontSize:.5,linkDistance:1,opacityScale:3,repelForce:1,scale:1.4}:{centerForce:1,depth:1,enableDrag:!0,enableLegend:!1,enableZoom:!0,fontSize:.6,linkDistance:1,opacityScale:3,repelForce:2,scale:1.2})}var i=document.getElementsByClassName("mermaid");i.length>0&&import("https://unpkg.com/mermaid@9/dist/mermaid.esm.min.mjs").then(e=>{e.default.init()});function a(n){const e=n.target,t=e.className.split(" "),s=t.includes("broken"),o=t.includes("internal-link");plausible("Link Click",{props:{href:e.href,broken:s,internal:o,graph:!1}})}const r=document.querySelectorAll("a");for(link of r)link.className.includes("root-title")&&link.addEventListener("click",a,{once:!0})},init=(e=document)=>{addCopyButtons(),addTitleToCodeBlocks(),renderMathInElement(e.body,{delimiters:[{left:"$$",right:"$$",display:!0},{left:"$",right:"$",display:!1}],macros:{'’':"'"},throwOnError:!1})}</script><script type=module>
    import { attachSPARouting } from "https:\/\/notes.joubamety.com\/js\/router.d6fe6bd821db9ea97f9aeefae814d8e7.min.js"
    attachSPARouting(init, render)
  </script><script defer data-domain=notes.joubamety.com src=https://plausible.io/js/script.js></script>
<script>window.plausible=window.plausible||function(){(window.plausible.q=window.plausible.q||[]).push(arguments)}</script></head><body><div id=search-container><div id=search-space><input autocomplete=off id=search-bar name=search type=text aria-label=Search placeholder="Search for something..."><div id=results-container></div></div></div><script src=https://cdn.jsdelivr.net/npm/flexsearch@0.7.21/dist/flexsearch.bundle.js integrity="sha256-i3A0NZGkhsKjVMzFxv3ksk0DZh3aXqu0l49Bbh0MdjE=" crossorigin=anonymous defer></script>
<script defer src=https://notes.joubamety.com/js/full-text-search.e6e2e0c213187ca0c703d6e2c7a77fcd.min.js></script><div class=singlePage><header><img src=/icon.png style=max-width:48px;margin:0%;margin-right:10px><h1 id=page-title><a class=root-title href=https://notes.joubamety.com/>JoubaMety's Notes</a></h1><div class=spacer></div><div id=search-icon><p>Search</p><svg tabindex="0" aria-labelledby="title desc" role="img" xmlns="http://www.w3.org/2000/svg" viewBox="0 0 19.9 19.7"><title id="title">Search Icon</title><desc id="desc">Icon to open search</desc><g class="search-path" fill="none"><path stroke-linecap="square" d="M18.5 18.3l-5.4-5.4"/><circle cx="8" cy="8" r="7"/></g></svg></div><div class=darkmode><input class=toggle id=darkmode-toggle type=checkbox tabindex=-1>
<label id=toggle-label-light for=darkmode-toggle tabindex=-1><svg xmlns="http://www.w3.org/2000/svg" xmlns:xlink="http://www.w3.org/1999/xlink" id="dayIcon" viewBox="0 0 35 35" style="enable-background:new 0 0 35 35"><title>Light Mode</title><path d="M6 17.5C6 16.672 5.328 16 4.5 16h-3C.672 16 0 16.672.0 17.5S.672 19 1.5 19h3C5.328 19 6 18.328 6 17.5zM7.5 26c-.414.0-.789.168-1.061.439l-2 2C4.168 28.711 4 29.086 4 29.5 4 30.328 4.671 31 5.5 31c.414.0.789-.168 1.06-.44l2-2C8.832 28.289 9 27.914 9 27.5 9 26.672 8.329 26 7.5 26zm10-20C18.329 6 19 5.328 19 4.5v-3C19 .672 18.329.0 17.5.0S16 .672 16 1.5v3C16 5.328 16.671 6 17.5 6zm10 3c.414.0.789-.168 1.06-.439l2-2C30.832 6.289 31 5.914 31 5.5 31 4.672 30.329 4 29.5 4c-.414.0-.789.168-1.061.44l-2 2C26.168 6.711 26 7.086 26 7.5 26 8.328 26.671 9 27.5 9zM6.439 8.561C6.711 8.832 7.086 9 7.5 9 8.328 9 9 8.328 9 7.5c0-.414-.168-.789-.439-1.061l-2-2C6.289 4.168 5.914 4 5.5 4 4.672 4 4 4.672 4 5.5c0 .414.168.789.439 1.06l2 2.001zM33.5 16h-3c-.828.0-1.5.672-1.5 1.5s.672 1.5 1.5 1.5h3c.828.0 1.5-.672 1.5-1.5S34.328 16 33.5 16zM28.561 26.439C28.289 26.168 27.914 26 27.5 26c-.828.0-1.5.672-1.5 1.5.0.414.168.789.439 1.06l2 2C28.711 30.832 29.086 31 29.5 31c.828.0 1.5-.672 1.5-1.5.0-.414-.168-.789-.439-1.061l-2-2zM17.5 29c-.829.0-1.5.672-1.5 1.5v3c0 .828.671 1.5 1.5 1.5s1.5-.672 1.5-1.5v-3C19 29.672 18.329 29 17.5 29zm0-22C11.71 7 7 11.71 7 17.5S11.71 28 17.5 28 28 23.29 28 17.5 23.29 7 17.5 7zm0 18c-4.136.0-7.5-3.364-7.5-7.5s3.364-7.5 7.5-7.5 7.5 3.364 7.5 7.5S21.636 25 17.5 25z"/></svg></label><label id=toggle-label-dark for=darkmode-toggle tabindex=-1><svg xmlns="http://www.w3.org/2000/svg" xmlns:xlink="http://www.w3.org/1999/xlink" id="nightIcon" viewBox="0 0 100 100" style="enable-background='new 0 0 100 100'"><title>Dark Mode</title><path d="M96.76 66.458c-.853-.852-2.15-1.064-3.23-.534-6.063 2.991-12.858 4.571-19.655 4.571C62.022 70.495 50.88 65.88 42.5 57.5 29.043 44.043 25.658 23.536 34.076 6.47c.532-1.08.318-2.379-.534-3.23-.851-.852-2.15-1.064-3.23-.534-4.918 2.427-9.375 5.619-13.246 9.491-9.447 9.447-14.65 22.008-14.65 35.369.0 13.36 5.203 25.921 14.65 35.368s22.008 14.65 35.368 14.65c13.361.0 25.921-5.203 35.369-14.65 3.872-3.871 7.064-8.328 9.491-13.246C97.826 68.608 97.611 67.309 96.76 66.458z"/></svg></label></div></header><article><h1>Video with different video codes for testing browser support</h1><p class=meta>Last updated
Apr 17, 2023
<a href=https://github.com/JoubaMety/notes.joubamety.com/tree/hugo/content/test/video_codecs.md rel=noopener>Edit Source</a></p><ul class=tags></ul><p>All of these videos are encoded with target bitrate of <code>4M</code>,<br>individual video weighing at around <code>9 MB</code>.</p><a href=#avch264><h1 id=avch264><span class=hanchor arialabel=Anchor># </span>AVC/H.264</h1></a><video id=video1 controls width=512>
<source src=/test/_media/site_support_01_AVC.mp4 type=video/mp4>Huh</video>
<script>var video=document.getElementById("video1");video.setAttribute("controls","controls")</script><div class=highlight><div class=chroma><table class=lntable><tr><td class=lntd><pre tabindex=0 class=chroma><code><span class=lnt>1
</span></code></pre></td><td class=lntd><pre tabindex=0 class=chroma><code class=language-powershell data-lang=powershell><span class=line><span class=cl><span class=p>$</span> <span class=n>ffmpeg</span> <span class=n>-hwaccel</span> <span class=n>auto</span> <span class=n>-ss</span> <span class=n>18</span><span class=p>.</span><span class=n>222</span> <span class=n>-to</span> <span class=n>36</span><span class=p>.</span><span class=n>250</span> <span class=n>-i</span> <span class=s2>&#34;.\2022-06-07_19.51.20.mp4&#34;</span> <span class=n>-vf</span> <span class=s2>&#34;fps=60&#34;</span> <span class=n>-c</span><span class=err>:</span><span class=n>v</span> <span class=n>h264_nvenc</span> <span class=n>-preset</span> <span class=n>p7</span> <span class=n>-b</span><span class=err>:</span><span class=n>v</span> <span class=n>4M</span> <span class=n>-movflags</span> <span class=p>+</span><span class=n>faststart</span> <span class=s2>&#34;.\site_support_01_AVC.mp4&#34;</span>
</span></span></code></pre></td></tr></table></div></div><div class=highlight><div class=chroma><table class=lntable><tr><td class=lntd><pre tabindex=0 class=chroma><code><span class=lnt> 1
</span><span class=lnt> 2
</span><span class=lnt> 3
</span><span class=lnt> 4
</span><span class=lnt> 5
</span><span class=lnt> 6
</span><span class=lnt> 7
</span><span class=lnt> 8
</span><span class=lnt> 9
</span><span class=lnt>10
</span><span class=lnt>11
</span><span class=lnt>12
</span><span class=lnt>13
</span></code></pre></td><td class=lntd><pre tabindex=0 class=chroma><code class=language-fallback data-lang=fallback><span class=line><span class=cl>$ ffprobe &#34;.\site_support_01_AVC.mp4&#34;
</span></span><span class=line><span class=cl>Input #0, mov,mp4,m4a,3gp,3g2,mj2, from &#39;.\site_support_01_AVC.mp4&#39;:
</span></span><span class=line><span class=cl>  Metadata:
</span></span><span class=line><span class=cl>    major_brand     : isom
</span></span><span class=line><span class=cl>    minor_version   : 512
</span></span><span class=line><span class=cl>    compatible_brands: isomiso2avc1mp41
</span></span><span class=line><span class=cl>    encoder         : Lavf60.4.100
</span></span><span class=line><span class=cl>  Duration: 00:00:18.03, start: 0.000000, bitrate: 3965 kb/s
</span></span><span class=line><span class=cl>  Stream #0:0[0x1](und): Video: h264 (Main) (avc1 / 0x31637661), yuv420p(progressive), 1440x1080 [SAR 1:1 DAR 4:3], 3959 kb/s, 60 fps, 60 tbr, 15360 tbn (default)
</span></span><span class=line><span class=cl>    Metadata:
</span></span><span class=line><span class=cl>      handler_name    : VideoHandler
</span></span><span class=line><span class=cl>      vendor_id       : [0][0][0][0]
</span></span><span class=line><span class=cl>      encoder         : Lavc60.5.100 h264_nvenc
</span></span></code></pre></td></tr></table></div></div><a href=#hevch265><h1 id=hevch265><span class=hanchor arialabel=Anchor># </span>HEVC/H.265</h1></a><video id=video2 controls width=512>
<source src=/test/_media/site_support_02_HEVC.mp4 type=video/mp4><source src=/test/_media/site_support_02_HEVC.mp4 type='video/mp4;codecs="hvc1"'>Huh</video>
<script>var video=document.getElementById("video2");video.setAttribute("controls","controls")</script><div class=highlight><div class=chroma><table class=lntable><tr><td class=lntd><pre tabindex=0 class=chroma><code><span class=lnt>1
</span></code></pre></td><td class=lntd><pre tabindex=0 class=chroma><code class=language-powershell data-lang=powershell><span class=line><span class=cl><span class=p>$</span> <span class=n>ffmpeg</span> <span class=n>-hwaccel</span> <span class=n>auto</span> <span class=n>-ss</span> <span class=n>18</span><span class=p>.</span><span class=n>222</span> <span class=n>-to</span> <span class=n>36</span><span class=p>.</span><span class=n>250</span> <span class=n>-i</span> <span class=s2>&#34;.\2022-06-07_19.51.20.mp4&#34;</span> <span class=n>-vf</span> <span class=s2>&#34;fps=60&#34;</span> <span class=n>-c</span><span class=err>:</span><span class=n>v</span> <span class=n>hevc_nvenc</span> <span class=n>-preset</span> <span class=n>p7</span> <span class=n>-b</span><span class=err>:</span><span class=n>v</span> <span class=n>4M</span> <span class=n>-tag</span><span class=err>:</span><span class=n>v</span> <span class=n>hvc1</span> <span class=n>-movflags</span> <span class=p>+</span><span class=n>faststart</span> <span class=s2>&#34;.\site_support_02_HEVC.mp4&#34;</span>
</span></span></code></pre></td></tr></table></div></div><div class=highlight><div class=chroma><table class=lntable><tr><td class=lntd><pre tabindex=0 class=chroma><code><span class=lnt> 1
</span><span class=lnt> 2
</span><span class=lnt> 3
</span><span class=lnt> 4
</span><span class=lnt> 5
</span><span class=lnt> 6
</span><span class=lnt> 7
</span><span class=lnt> 8
</span><span class=lnt> 9
</span><span class=lnt>10
</span><span class=lnt>11
</span><span class=lnt>12
</span><span class=lnt>13
</span></code></pre></td><td class=lntd><pre tabindex=0 class=chroma><code class=language-fallback data-lang=fallback><span class=line><span class=cl>$ ffprobe &#34;.\site_support_02_HEVC.mp4&#34;
</span></span><span class=line><span class=cl>Input #0, mov,mp4,m4a,3gp,3g2,mj2, from &#39;.\site_support_02_HEVC.mp4&#39;:
</span></span><span class=line><span class=cl>  Metadata:
</span></span><span class=line><span class=cl>    major_brand     : isom
</span></span><span class=line><span class=cl>    minor_version   : 512
</span></span><span class=line><span class=cl>    compatible_brands: isomiso2mp41
</span></span><span class=line><span class=cl>    encoder         : Lavf60.4.100
</span></span><span class=line><span class=cl>  Duration: 00:00:18.03, start: 0.000000, bitrate: 4176 kb/s
</span></span><span class=line><span class=cl>  Stream #0:0[0x1](und): Video: hevc (Main) (hvc1 / 0x31637668), yuv420p(tv, progressive), 1440x1080 [SAR 1:1 DAR 4:3], 4170 kb/s, 60 fps, 60 tbr, 15360 tbn (default)
</span></span><span class=line><span class=cl>    Metadata:
</span></span><span class=line><span class=cl>      handler_name    : VideoHandler
</span></span><span class=line><span class=cl>      vendor_id       : [0][0][0][0]
</span></span><span class=line><span class=cl>      encoder         : Lavc60.5.100 hevc_nvenc
</span></span></code></pre></td></tr></table></div></div><ul><li>Important note about HEVC support:<ul><li>Normally, <code>ffmpeg</code> produces HEVC content with <code>hev1</code> tag, <strong>but Apple decided to be a **** and require HEVC content to have <code>hvc1</code> tag instead!</strong></li><li>So not only you have to tell the container to store it as <code>hvc1</code> via <code>-tag:v hvc1</code>, you also might have to tell the browser that there&rsquo;s even a <code>hvc1</code> source!</li><li>For example, the current code for HEVC embed above:<div class=highlight><div class=chroma><table class=lntable><tr><td class=lntd><pre tabindex=0 class=chroma><code><span class=lnt>1
</span><span class=lnt>2
</span><span class=lnt>3
</span><span class=lnt>4
</span><span class=lnt>5
</span></code></pre></td><td class=lntd><pre tabindex=0 class=chroma><code class=language-html data-lang=html><span class=line><span class=cl>  <span class=p>&lt;</span><span class=nt>video</span> <span class=na>id</span><span class=o>=</span><span class=s>&#34;video2&#34;</span> <span class=na>controls</span> <span class=na>width</span><span class=o>=</span><span class=s>&#34;512&#34;</span><span class=p>&gt;</span>
</span></span><span class=line><span class=cl>  	<span class=p>&lt;</span><span class=nt>source</span> <span class=na>src</span><span class=o>=</span><span class=s>&#34;/test/_media/site_support_02_HEVC.mp4&#34;</span> <span class=na>type</span><span class=o>=</span><span class=s>&#39;video/mp4&#39;</span><span class=p>&gt;</span>
</span></span><span class=line><span class=cl>  	<span class=p>&lt;</span><span class=nt>source</span> <span class=na>src</span><span class=o>=</span><span class=s>&#34;/test/_media/site_support_02_HEVC.mp4&#34;</span> <span class=na>type</span><span class=o>=</span><span class=s>&#39;video/mp4; codecs=&#34;hvc1&#34;&#39;</span><span class=p>&gt;</span>
</span></span><span class=line><span class=cl>  	Huh
</span></span><span class=line><span class=cl>  <span class=p>&lt;/</span><span class=nt>video</span><span class=p>&gt;</span>
</span></span></code></pre></td></tr></table></div></div><ul><li>Reason for having two sources is because Chromium doesn&rsquo;t deal with this Apple thing, making the HEVC video unplayable!<br>But by including the normal source first makes it playable for Chromium users, and Apple (Safari) will play the second one! Splendid!</li></ul></li></ul></li></ul><a href=#vp9><h1 id=vp9><span class=hanchor arialabel=Anchor># </span>VP9</h1></a><video id=video3 controls width=512>
<source src=/test/_media/site_support_03_VP9.mp4 type=video/mp4>Huh</video>
<script>var video=document.getElementById("video3");video.setAttribute("controls","controls")</script><div class=highlight><div class=chroma><table class=lntable><tr><td class=lntd><pre tabindex=0 class=chroma><code><span class=lnt>1
</span></code></pre></td><td class=lntd><pre tabindex=0 class=chroma><code class=language-powershell data-lang=powershell><span class=line><span class=cl><span class=p>$</span> <span class=n>ffmpeg</span> <span class=n>-hwaccel</span> <span class=n>auto</span> <span class=n>-ss</span> <span class=n>18</span><span class=p>.</span><span class=n>222</span> <span class=n>-to</span> <span class=n>36</span><span class=p>.</span><span class=n>250</span> <span class=n>-i</span> <span class=s2>&#34;.\2022-06-07_19.51.20.mp4&#34;</span> <span class=n>-vf</span> <span class=s2>&#34;fps=60&#34;</span> <span class=n>-c</span><span class=err>:</span><span class=n>v</span> <span class=nb>libvpx-vp9</span> <span class=n>-row-mt</span> <span class=n>1</span> <span class=n>-b</span><span class=err>:</span><span class=n>v</span> <span class=n>4M</span> <span class=n>-movflags</span> <span class=p>+</span><span class=n>faststart</span> <span class=s2>&#34;.\site_support_03_VP9.mp4&#34;</span>
</span></span></code></pre></td></tr></table></div></div><div class=highlight><div class=chroma><table class=lntable><tr><td class=lntd><pre tabindex=0 class=chroma><code><span class=lnt> 1
</span><span class=lnt> 2
</span><span class=lnt> 3
</span><span class=lnt> 4
</span><span class=lnt> 5
</span><span class=lnt> 6
</span><span class=lnt> 7
</span><span class=lnt> 8
</span><span class=lnt> 9
</span><span class=lnt>10
</span><span class=lnt>11
</span><span class=lnt>12
</span><span class=lnt>13
</span></code></pre></td><td class=lntd><pre tabindex=0 class=chroma><code class=language-fallback data-lang=fallback><span class=line><span class=cl>$ ffprobe &#34;.\site_support_03_VP9.mp4&#34;
</span></span><span class=line><span class=cl>Input #0, mov,mp4,m4a,3gp,3g2,mj2, from &#39;.\site_support_03_VP9.mp4&#39;:
</span></span><span class=line><span class=cl>  Metadata:
</span></span><span class=line><span class=cl>    major_brand     : isom
</span></span><span class=line><span class=cl>    minor_version   : 512
</span></span><span class=line><span class=cl>    compatible_brands: isomiso2mp41
</span></span><span class=line><span class=cl>    encoder         : Lavf60.4.100
</span></span><span class=line><span class=cl>  Duration: 00:00:18.03, start: 0.000000, bitrate: 3773 kb/s
</span></span><span class=line><span class=cl>  Stream #0:0[0x1](und): Video: vp9 (Profile 0) (vp09 / 0x39307076), yuv420p(tv, progressive), 1440x1080, 3771 kb/s, SAR 1:1 DAR 4:3, 60 fps, 60 tbr, 15360 tbn (default)
</span></span><span class=line><span class=cl>    Metadata:
</span></span><span class=line><span class=cl>      handler_name    : VideoHandler
</span></span><span class=line><span class=cl>      vendor_id       : [0][0][0][0]
</span></span><span class=line><span class=cl>      encoder         : Lavc60.5.100 libvpx-vp9
</span></span></code></pre></td></tr></table></div></div><a href=#av1><h1 id=av1><span class=hanchor arialabel=Anchor># </span>AV1</h1></a><video id=video4 controls width=512>
<source src=/test/_media/site_support_04_AV1_SVT.mp4 type=video/mp4>Huh</video>
<script>var video=document.getElementById("video4");video.setAttribute("controls","controls")</script><div class=highlight><div class=chroma><table class=lntable><tr><td class=lntd><pre tabindex=0 class=chroma><code><span class=lnt>1
</span></code></pre></td><td class=lntd><pre tabindex=0 class=chroma><code class=language-powershell data-lang=powershell><span class=line><span class=cl><span class=p>$</span> <span class=n>ffmpeg</span> <span class=n>-hwaccel</span> <span class=n>auto</span> <span class=n>-ss</span> <span class=n>18</span><span class=p>.</span><span class=n>222</span> <span class=n>-to</span> <span class=n>36</span><span class=p>.</span><span class=n>250</span> <span class=n>-i</span> <span class=s2>&#34;.\2022-06-07_19.51.20.mp4&#34;</span> <span class=n>-vf</span> <span class=s2>&#34;fps=60&#34;</span> <span class=n>-c</span><span class=err>:</span><span class=n>v</span> <span class=n>libsvtav1</span> <span class=n>-preset</span> <span class=n>8</span> <span class=n>-b</span><span class=err>:</span><span class=n>v</span> <span class=n>4M</span> <span class=n>-movflags</span> <span class=p>+</span><span class=n>faststart</span> <span class=s2>&#34;.\site_support_04_AV1_SVT.mp4&#34;</span>
</span></span></code></pre></td></tr></table></div></div><div class=highlight><div class=chroma><table class=lntable><tr><td class=lntd><pre tabindex=0 class=chroma><code><span class=lnt> 1
</span><span class=lnt> 2
</span><span class=lnt> 3
</span><span class=lnt> 4
</span><span class=lnt> 5
</span><span class=lnt> 6
</span><span class=lnt> 7
</span><span class=lnt> 8
</span><span class=lnt> 9
</span><span class=lnt>10
</span><span class=lnt>11
</span><span class=lnt>12
</span><span class=lnt>13
</span></code></pre></td><td class=lntd><pre tabindex=0 class=chroma><code class=language-fallback data-lang=fallback><span class=line><span class=cl>$ ffprobe &#34;.\site_support_04_AV1_SVT.mp4&#34;
</span></span><span class=line><span class=cl>Input #0, mov,mp4,m4a,3gp,3g2,mj2, from &#39;.\site_support_04_AV1_SVT.mp4&#39;:
</span></span><span class=line><span class=cl>  Metadata:
</span></span><span class=line><span class=cl>    major_brand     : isom
</span></span><span class=line><span class=cl>    minor_version   : 512
</span></span><span class=line><span class=cl>    compatible_brands: isomav01iso2mp41
</span></span><span class=line><span class=cl>    encoder         : Lavf60.4.100
</span></span><span class=line><span class=cl>  Duration: 00:00:18.03, start: 0.000000, bitrate: 4092 kb/s
</span></span><span class=line><span class=cl>  Stream #0:0[0x1](und): Video: av1 (Main) (av01 / 0x31307661), yuv420p(tv, progressive), 1440x1080, 4090 kb/s, SAR 1:1 DAR 4:3, 60 fps, 60 tbr, 15360 tbn (default)
</span></span><span class=line><span class=cl>    Metadata:
</span></span><span class=line><span class=cl>      handler_name    : VideoHandler
</span></span><span class=line><span class=cl>      vendor_id       : [0][0][0][0]
</span></span><span class=line><span class=cl>      encoder         : Lavc60.5.100 libsvtav1
</span></span></code></pre></td></tr></table></div></div><a href=#ffmpeg-build><h1 id=ffmpeg-build><span class=hanchor arialabel=Anchor># </span>FFMPEG Build</h1></a><div class=highlight><div class=chroma><table class=lntable><tr><td class=lntd><pre tabindex=0 class=chroma><code><span class=lnt>1
</span><span class=lnt>2
</span><span class=lnt>3
</span></code></pre></td><td class=lntd><pre tabindex=0 class=chroma><code class=language-fallback data-lang=fallback><span class=line><span class=cl>ffmpeg version 2023-03-02-git-814178f926-full_build-www.gyan.dev Copyright (c) 2000-2023 the FFmpeg developers
</span></span><span class=line><span class=cl>  built with gcc 12.2.0 (Rev10, Built by MSYS2 project)
</span></span><span class=line><span class=cl>  configuration: --enable-gpl --enable-version3 --enable-static --disable-w32threads --disable-autodetect --enable-fontconfig --enable-iconv --enable-gnutls --enable-libxml2 --enable-gmp --enable-bzlib --enable-lzma --enable-libsnappy --enable-zlib --enable-librist --enable-libsrt --enable-libssh --enable-libzmq --enable-avisynth --enable-libbluray --enable-libcaca --enable-sdl2 --enable-libaribb24 --enable-libdav1d --enable-libdavs2 --enable-libuavs3d --enable-libzvbi --enable-librav1e --enable-libsvtav1 --enable-libwebp --enable-libx264 --enable-libx265 --enable-libxavs2 --enable-libxvid --enable-libaom --enable-libjxl --enable-libopenjpeg --enable-libvpx --enable-mediafoundation --enable-libass --enable-frei0r --enable-libfreetype --enable-libfribidi --enable-liblensfun --enable-libvidstab --enable-libvmaf --enable-libzimg --enable-amf --enable-cuda-llvm --enable-cuvid --enable-ffnvcodec --enable-nvdec --enable-nvenc --enable-d3d11va --enable-dxva2 --enable-libvpl --enable-libshaderc --enable-vulkan --enable-libplacebo --enable-opencl --enable-libcdio --enable-libgme --enable-libmodplug --enable-libopenmpt --enable-libopencore-amrwb --enable-libmp3lame --enable-libshine --enable-libtheora --enable-libtwolame --enable-libvo-amrwbenc --enable-libilbc --enable-libgsm --enable-libopencore-amrnb --enable-libopus --enable-libspeex --enable-libvorbis --enable-ladspa --enable-libbs2b --enable-libflite --enable-libmysofa --enable-librubberband --enable-libsoxr --enable-chromaprint
</span></span></code></pre></td></tr></table></div></div></article><hr><div class=page-end id=footer><div class=backlinks-container><h3>Backlinks</h3><ul class=backlinks><li><a href=/ data-ctx="Video Codec Test" data-src=/ class=internal-link>JoubaMety's Notes</a></li></ul></div><div><script src=https://cdn.jsdelivr.net/npm/d3@6.7.0/dist/d3.min.js integrity="sha256-+7jaYCp29O1JusNWHaYtgUn6EhuP0VaFuswhNV06MyI=" crossorigin=anonymous></script><h3>Interactive Graph</h3><div id=graph-container></div><style>:root{--g-node:var(--secondary);--g-node-active:var(--primary);--g-node-inactive:var(--visited);--g-link:var(--outlinegray);--g-link-active:#5a7282}</style><script src=https://notes.joubamety.com/js/graph.6579af7b10c818dbd2ca038702db0224.js></script></div></div><div id=contact_buttons><footer><p>Made by Jan "JoubaMety" Rašnovský using <a href=https://github.com/jackyzha0/quartz>Quartz</a>, © 2023</p><ul><li><a href=https://notes.joubamety.com/>Home</a></li><li><a href=https://twitter.com/JoubaMety><svg xmlns="http://www.w3.org/2000/svg" width="20" height="20" viewBox="0 0 24 24"><path d="M24 4.557c-.883.392-1.832.656-2.828.775 1.017-.609 1.798-1.574 2.165-2.724-.951.564-2.005.974-3.127 1.195-.897-.957-2.178-1.555-3.594-1.555-3.179.0-5.515 2.966-4.797 6.045C7.728 8.088 4.1 6.128 1.671 3.149c-1.29 2.213-.669 5.108 1.523 6.574-.806-.026-1.566-.247-2.229-.616-.054 2.281 1.581 4.415 3.949 4.89-.693.188-1.452.232-2.224.084.626 1.956 2.444 3.379 4.6 3.419-2.07 1.623-4.678 2.348-7.29 2.04 2.179 1.397 4.768 2.212 7.548 2.212 9.142.0 14.307-7.721 13.995-14.646.962-.695 1.797-1.562 2.457-2.549z"/></svg></a></li><li><a href=https://github.com/JoubaMety><svg xmlns="http://www.w3.org/2000/svg" width="20" height="20" viewBox="0 0 98 98"><path d="M48.854.0C21.839.0.0 22 0 49.217c0 21.756 13.993 40.172 33.405 46.69 2.427.49 3.316-1.059 3.316-2.362.0-1.141-.08-5.052-.08-9.127-13.59 2.934-16.42-5.867-16.42-5.867-2.184-5.704-5.42-7.17-5.42-7.17-4.448-3.015.324-3.015.324-3.015 4.934.326 7.523 5.052 7.523 5.052 4.367 7.496 11.404 5.378 14.235 4.074.404-3.178 1.699-5.378 3.074-6.6-10.839-1.141-22.243-5.378-22.243-24.283.0-5.378 1.94-9.778 5.014-13.2-.485-1.222-2.184-6.275.486-13.038.0.0 4.125-1.304 13.426 5.052a46.97 46.97.0 0112.214-1.63c4.125.0 8.33.571 12.213 1.63 9.302-6.356 13.427-5.052 13.427-5.052 2.67 6.763.97 11.816.485 13.038 3.155 3.422 5.015 7.822 5.015 13.2.0 18.905-11.404 23.06-22.324 24.283 1.78 1.548 3.316 4.481 3.316 9.126.0 6.6-.08 11.897-.08 13.526.0 1.304.89 2.853 3.316 2.364 19.412-6.52 33.405-24.935 33.405-46.691C97.707 22 75.788.0 48.854.0z"/></svg></a></li></ul></footer></div></div></body></html>